<svg width="21" height="20" viewBox="0 0 21 20" fill="none" xmlns="http://www.w3.org/2000/svg">
<path d="M10.4998 1.66663C12.764 1.66663 13.0465 1.67496 13.9348 1.71663C14.8223 1.75829 15.4265 1.89746 15.9582 2.10413C16.5082 2.31579 16.9715 2.60246 17.4348 3.06496C17.8586 3.48154 18.1865 3.98545 18.3957 4.54163C18.6015 5.07246 18.7415 5.67746 18.7832 6.56496C18.8223 7.45329 18.8332 7.73579 18.8332 9.99996C18.8332 12.2641 18.8248 12.5466 18.7832 13.435C18.7415 14.3225 18.6015 14.9266 18.3957 15.4583C18.1871 16.0148 17.8591 16.5188 17.4348 16.935C17.0181 17.3586 16.5143 17.6864 15.9582 17.8958C15.4273 18.1016 14.8223 18.2416 13.9348 18.2833C13.0465 18.3225 12.764 18.3333 10.4998 18.3333C8.23567 18.3333 7.95317 18.325 7.06484 18.2833C6.17734 18.2416 5.57317 18.1016 5.0415 17.8958C4.48511 17.687 3.98111 17.3591 3.56484 16.935C3.14101 16.5184 2.81311 16.0145 2.604 15.4583C2.39734 14.9275 2.25817 14.3225 2.2165 13.435C2.17734 12.5466 2.1665 12.2641 2.1665 9.99996C2.1665 7.73579 2.17484 7.45329 2.2165 6.56496C2.25817 5.67663 2.39734 5.07329 2.604 4.54163C2.81253 3.98511 3.14051 3.48106 3.56484 3.06496C3.98123 2.64099 4.48519 2.31307 5.0415 2.10413C5.57317 1.89746 6.1765 1.75829 7.06484 1.71663C7.95317 1.67746 8.23567 1.66663 10.4998 1.66663ZM10.4998 5.83329C9.39477 5.83329 8.33496 6.27228 7.55356 7.05368C6.77216 7.83508 6.33317 8.89489 6.33317 9.99996C6.33317 11.105 6.77216 12.1648 7.55356 12.9462C8.33496 13.7276 9.39477 14.1666 10.4998 14.1666C11.6049 14.1666 12.6647 13.7276 13.4461 12.9462C14.2275 12.1648 14.6665 11.105 14.6665 9.99996C14.6665 8.89489 14.2275 7.83508 13.4461 7.05368C12.6647 6.27228 11.6049 5.83329 10.4998 5.83329ZM15.9165 5.62496C15.9165 5.34869 15.8068 5.08374 15.6114 4.88839C15.4161 4.69304 15.1511 4.58329 14.8748 4.58329C14.5986 4.58329 14.3336 4.69304 14.1383 4.88839C13.9429 5.08374 13.8332 5.34869 13.8332 5.62496C13.8332 5.90123 13.9429 6.16618 14.1383 6.36153C14.3336 6.55688 14.5986 6.66663 14.8748 6.66663C15.1511 6.66663 15.4161 6.55688 15.6114 6.36153C15.8068 6.16618 15.9165 5.90123 15.9165 5.62496ZM10.4998 7.49996C11.1629 7.49996 11.7988 7.76335 12.2676 8.23219C12.7364 8.70103 12.9998 9.33692 12.9998 9.99996C12.9998 10.663 12.7364 11.2989 12.2676 11.7677C11.7988 12.2366 11.1629 12.5 10.4998 12.5C9.8368 12.5 9.20091 12.2366 8.73207 11.7677C8.26323 11.2989 7.99984 10.663 7.99984 9.99996C7.99984 9.33692 8.26323 8.70103 8.73207 8.23219C9.20091 7.76335 9.8368 7.49996 10.4998 7.49996Z" fill="white"/>
</svg>
