<svg width="40" height="40" viewBox="0 0 40 40" fill="none" xmlns="http://www.w3.org/2000/svg">
<path d="M12.5 5.83334C11.837 5.83334 11.2011 6.09674 10.7323 6.56558C10.2634 7.03442 10 7.6703 10 8.33334C10 8.99638 10.2634 9.63227 10.7323 10.1011C11.2011 10.57 11.837 10.8333 12.5 10.8333C13.1631 10.8333 13.799 10.57 14.2678 10.1011C14.7366 9.63227 15 8.99638 15 8.33334C15 7.6703 14.7366 7.03442 14.2678 6.56558C13.799 6.09674 13.1631 5.83334 12.5 5.83334ZM7.50004 8.33334C7.50004 7.00726 8.02682 5.73549 8.96451 4.79781C9.90219 3.86013 11.174 3.33334 12.5 3.33334C13.8261 3.33334 15.0979 3.86013 16.0356 4.79781C16.9733 5.73549 17.5 7.00726 17.5 8.33334C17.5 9.65943 16.9733 10.9312 16.0356 11.8689C15.0979 12.8066 13.8261 13.3333 12.5 13.3333C11.174 13.3333 9.90219 12.8066 8.96451 11.8689C8.02682 10.9312 7.50004 9.65943 7.50004 8.33334ZM6.28004 15C4.65004 15 3.33337 16.3183 3.33337 17.9467V18.5467C3.33337 18.8917 3.33337 20.8933 4.50004 22.8383C5.41337 24.355 6.96171 25.7167 9.45837 26.3267C9.80032 25.4177 10.4195 24.6393 11.2284 24.1017C8.55671 23.8167 7.29337 22.63 6.64504 21.5517C5.83837 20.2083 5.83337 18.7783 5.83337 18.5417V17.9467C5.83337 17.7 6.03337 17.5 6.28004 17.5H13.3834C13.4935 16.6187 13.7797 15.7685 14.225 15H6.28004ZM25.775 15C26.21 15.7533 26.5034 16.5983 26.615 17.5H33.72C33.9667 17.5 34.1667 17.7 34.1667 17.9467V18.5417C34.1667 18.7783 34.1617 20.2083 33.355 21.55C32.7067 22.63 31.4434 23.8167 28.7717 24.1017C29.5717 24.635 30.1984 25.4117 30.5417 26.3267C33.0384 25.7167 34.5867 24.355 35.4984 22.8383C36.6667 20.8933 36.6667 18.8933 36.6667 18.545V17.945C36.6667 16.32 35.3484 15 33.72 15H25.775ZM25 8.33334C25 7.6703 25.2634 7.03442 25.7323 6.56558C26.2011 6.09674 26.837 5.83334 27.5 5.83334C28.1631 5.83334 28.799 6.09674 29.2678 6.56558C29.7366 7.03442 30 7.6703 30 8.33334C30 8.99638 29.7366 9.63227 29.2678 10.1011C28.799 10.57 28.1631 10.8333 27.5 10.8333C26.837 10.8333 26.2011 10.57 25.7323 10.1011C25.2634 9.63227 25 8.99638 25 8.33334ZM27.5 3.33334C26.174 3.33334 24.9022 3.86013 23.9645 4.79781C23.0268 5.73549 22.5 7.00726 22.5 8.33334C22.5 9.65943 23.0268 10.9312 23.9645 11.8689C24.9022 12.8066 26.174 13.3333 27.5 13.3333C28.8261 13.3333 30.0979 12.8066 31.0356 11.8689C31.9733 10.9312 32.5 9.65943 32.5 8.33334C32.5 7.00726 31.9733 5.73549 31.0356 4.79781C30.0979 3.86013 28.8261 3.33334 27.5 3.33334ZM20 15.8333C19.6717 15.8333 19.3466 15.898 19.0433 16.0236C18.74 16.1493 18.4644 16.3334 18.2323 16.5656C18.0001 16.7977 17.816 17.0733 17.6903 17.3766C17.5647 17.6799 17.5 18.005 17.5 18.3333C17.5 18.6616 17.5647 18.9867 17.6903 19.2901C17.816 19.5934 18.0001 19.869 18.2323 20.1011C18.4644 20.3333 18.74 20.5174 19.0433 20.643C19.3466 20.7687 19.6717 20.8333 20 20.8333C20.6631 20.8333 21.299 20.57 21.7678 20.1011C22.2366 19.6323 22.5 18.9964 22.5 18.3333C22.5 17.6703 22.2366 17.0344 21.7678 16.5656C21.299 16.0967 20.6631 15.8333 20 15.8333ZM15 18.3333C15 17.0073 15.5268 15.7355 16.4645 14.7978C17.4022 13.8601 18.674 13.3333 20 13.3333C21.3261 13.3333 22.5979 13.8601 23.5356 14.7978C24.4733 15.7355 25 17.0073 25 18.3333C25 19.6594 24.4733 20.9312 23.5356 21.8689C22.5979 22.8066 21.3261 23.3333 20 23.3333C18.674 23.3333 17.4022 22.8066 16.4645 21.8689C15.5268 20.9312 15 19.6594 15 18.3333ZM10.8334 27.9467C10.8334 26.3167 12.1517 25 13.78 25H26.22C27.8484 25 29.1667 26.3183 29.1667 27.9467V28.5467C29.1667 28.8917 29.1667 30.8933 28 32.8383C26.7617 34.895 24.355 36.6667 20 36.6667C15.645 36.6667 13.2367 34.895 12 32.8383C10.8334 30.8933 10.8334 28.8933 10.8334 28.545V27.9467ZM13.78 27.5C13.7214 27.5 13.6633 27.5116 13.6091 27.534C13.5549 27.5565 13.5057 27.5894 13.4642 27.6308C13.4227 27.6723 13.3898 27.7216 13.3674 27.7757C13.3449 27.8299 13.3334 27.888 13.3334 27.9467V28.5417C13.3334 28.7783 13.3384 30.2083 14.145 31.55C14.8884 32.7883 16.44 34.1667 20 34.1667C23.56 34.1667 25.1117 32.7883 25.855 31.55C26.6617 30.2083 26.6667 28.7783 26.6667 28.5417V27.9467C26.6667 27.8282 26.6196 27.7146 26.5359 27.6308C26.4521 27.5471 26.3385 27.5 26.22 27.5H13.78Z" fill="black"/>
</svg>
