<svg width="40" height="40" viewBox="0 0 40 40" fill="none" xmlns="http://www.w3.org/2000/svg">
<path d="M31.6667 12.5C31.6675 13.3453 31.5514 14.1866 31.3217 15H34.0217C35.4833 15 36.6667 16.1833 36.6667 17.6433V25.8333C36.6667 27.8694 36.0929 29.8642 35.0112 31.5891C33.9295 33.314 32.3836 34.6991 30.5507 35.5857C28.7179 36.4723 26.6723 36.8244 24.6485 36.6018C22.6247 36.3791 20.7046 35.5906 19.1083 34.3267L17.1333 36.3C17.0189 36.4228 16.8809 36.5213 16.7276 36.5896C16.5742 36.658 16.4087 36.6947 16.2409 36.6977C16.073 36.7006 15.9063 36.6698 15.7507 36.6069C15.595 36.544 15.4536 36.4504 15.3349 36.3317C15.2162 36.213 15.1227 36.0717 15.0598 35.916C14.9969 35.7604 14.9661 35.5936 14.969 35.4258C14.972 35.258 15.0087 35.0924 15.077 34.9391C15.1454 34.7858 15.2439 34.6478 15.3667 34.5333L17.34 32.5583C16.6769 31.7223 16.1411 30.7928 15.75 29.8C14.2969 30.0966 12.7961 30.0663 11.3562 29.7113C9.91624 29.3563 8.57331 28.6854 7.42465 27.7474C6.276 26.8093 5.35036 25.6275 4.71481 24.2875C4.07926 22.9476 3.7497 21.483 3.75 20V12.5233C3.75 11.13 4.88 10 6.27333 10H13.6783C14.2231 8.08026 15.3792 6.39061 16.9713 5.18746C18.5634 3.98432 20.5044 3.33335 22.5 3.33334H29.2667C30.5917 3.33334 31.6667 4.40834 31.6667 5.73334V12.5ZM16.2033 10.3033C17.5867 10.6545 18.8791 11.2971 19.9941 12.1882C21.109 13.0792 22.0208 14.1981 22.6683 15.47C23.6942 15.1575 24.7609 14.9991 25.8333 15H28.6833C29.0036 14.2055 29.1677 13.3567 29.1667 12.5V5.83334H22.5C21.1165 5.83336 19.7672 6.2636 18.639 7.06448C17.5109 7.86536 16.6597 8.99724 16.2033 10.3033ZM20.8917 32.5433C22.1328 33.4574 23.6032 34.0093 25.1393 34.1377C26.6753 34.2661 28.2169 33.9659 29.5926 33.2706C30.9682 32.5752 32.1241 31.5119 32.9316 30.199C33.7391 28.886 34.1667 27.3748 34.1667 25.8333V17.6433C34.1667 17.6245 34.163 17.6059 34.1558 17.5885C34.1486 17.5711 34.138 17.5553 34.1247 17.542C34.1114 17.5287 34.0956 17.5181 34.0782 17.5109C34.0608 17.5037 34.0422 17.5 34.0233 17.5H25.8333C24.2919 17.5 22.7807 17.9275 21.4677 18.7351C20.1547 19.5426 19.0915 20.6984 18.3961 22.0741C17.7008 23.4498 17.4006 24.9914 17.529 26.5274C17.6574 28.0635 18.2093 29.5339 19.1233 30.775L26.2 23.7C26.3144 23.5772 26.4524 23.4787 26.6058 23.4104C26.7591 23.3421 26.9246 23.3053 27.0925 23.3024C27.2603 23.2994 27.427 23.3303 27.5827 23.3931C27.7383 23.456 27.8797 23.5496 27.9984 23.6683C28.1171 23.787 28.2107 23.9284 28.2735 24.084C28.3364 24.2397 28.3673 24.4064 28.3643 24.5742C28.3614 24.7421 28.3246 24.9076 28.2563 25.0609C28.188 25.2142 28.0895 25.3522 27.9667 25.4667L20.8917 32.5433ZM15 25.8333C15 24.8467 15.1333 23.89 15.38 22.9817L10.7833 18.3833C10.6605 18.2689 10.562 18.1309 10.4937 17.9776C10.4254 17.8242 10.3886 17.6587 10.3857 17.4909C10.3827 17.323 10.4136 17.1563 10.4765 17.0007C10.5393 16.845 10.6329 16.7036 10.7516 16.5849C10.8703 16.4662 11.0117 16.3727 11.1673 16.3098C11.323 16.2469 11.4897 16.2161 11.6575 16.219C11.8254 16.222 11.9909 16.2587 12.1442 16.327C12.2976 16.3954 12.4356 16.4939 12.55 16.6167L16.4133 20.4783C17.3589 18.8199 18.724 17.4393 20.3717 16.475C19.7323 15.2742 18.7782 14.2699 17.6118 13.5697C16.4454 12.8695 15.1105 12.4997 13.75 12.5H6.265L6.25667 12.5067C6.25464 12.5092 6.25296 12.512 6.25167 12.515L6.25 12.5233V20C6.24985 21.1002 6.49176 22.187 6.95857 23.1832C7.42538 24.1795 8.10567 25.0609 8.95118 25.7648C9.79669 26.4688 10.7867 26.9781 11.8511 27.2566C12.9154 27.5352 14.028 27.5762 15.11 27.3767C15.0369 26.8655 15.0002 26.3497 15 25.8333Z" fill="black"/>
</svg>
