<svg width="24" height="24" viewBox="0 0 24 24" fill="none" xmlns="http://www.w3.org/2000/svg">
<path d="M6.01 16.136L4.141 4.00005H3C2.73478 4.00005 2.48043 3.89469 2.29289 3.70715C2.10536 3.51962 2 3.26526 2 3.00005C2 2.73483 2.10536 2.48048 2.29289 2.29294C2.48043 2.1054 2.73478 2.00005 3 2.00005H4.985C5.22624 1.99559 5.46086 2.07913 5.645 2.23505C5.834 2.39398 5.9573 2.61741 5.991 2.86205L6.319 5.00005H14V7.00005H6.627L7.857 15H17.256L18.756 10H20.844L18.958 16.287C18.8963 16.4931 18.7697 16.6738 18.5971 16.8023C18.4245 16.9307 18.2151 17.0001 18 17H7.016C6.76792 17.0046 6.52711 16.9161 6.341 16.752C6.15961 16.5935 6.04169 16.3747 6.009 16.136H6.01ZM10 20C10 20.5305 9.78929 21.0392 9.41421 21.4143C9.03914 21.7893 8.53043 22 8 22C7.46957 22 6.96086 21.7893 6.58579 21.4143C6.21071 21.0392 6 20.5305 6 20C6 19.4696 6.21071 18.9609 6.58579 18.5858C6.96086 18.2108 7.46957 18 8 18C8.53043 18 9.03914 18.2108 9.41421 18.5858C9.78929 18.9609 10 19.4696 10 20ZM19 20C19 20.5305 18.7893 21.0392 18.4142 21.4143C18.0391 21.7893 17.5304 22 17 22C16.4696 22 15.9609 21.7893 15.5858 21.4143C15.2107 21.0392 15 20.5305 15 20C15 19.4696 15.2107 18.9609 15.5858 18.5858C15.9609 18.2108 16.4696 18 17 18C17.5304 18 18.0391 18.2108 18.4142 18.5858C18.7893 18.9609 19 19.4696 19 20ZM19 2.00005C19.2652 2.00005 19.5196 2.1054 19.7071 2.29294C19.8946 2.48048 20 2.73483 20 3.00005V4.00005H21C21.2652 4.00005 21.5196 4.1054 21.7071 4.29294C21.8946 4.48048 22 4.73483 22 5.00005C22 5.26526 21.8946 5.51962 21.7071 5.70715C21.5196 5.89469 21.2652 6.00005 21 6.00005H20V7.00005C20 7.26526 19.8946 7.51962 19.7071 7.70715C19.5196 7.89469 19.2652 8.00005 19 8.00005C18.7348 8.00005 18.4804 7.89469 18.2929 7.70715C18.1054 7.51962 18 7.26526 18 7.00005V6.00005H17C16.7348 6.00005 16.4804 5.89469 16.2929 5.70715C16.1054 5.51962 16 5.26526 16 5.00005C16 4.73483 16.1054 4.48048 16.2929 4.29294C16.4804 4.1054 16.7348 4.00005 17 4.00005H18V3.00005C18 2.73483 18.1054 2.48048 18.2929 2.29294C18.4804 2.1054 18.7348 2.00005 19 2.00005Z" fill="black"/>
</svg>
