<svg width="32" height="32" viewBox="0 0 32 32" fill="none" xmlns="http://www.w3.org/2000/svg">
<path d="M3.33325 5.66663C3.33325 5.40141 3.43861 5.14706 3.62615 4.95952C3.81368 4.77198 4.06804 4.66663 4.33325 4.66663H5.07725C6.34392 4.66663 7.10392 5.51863 7.53725 6.31063C7.82659 6.83863 8.03592 7.45063 8.19992 8.00529C8.24428 8.00179 8.28876 8.00001 8.33325 7.99996H24.9973C26.1039 7.99996 26.9039 9.05863 26.5999 10.124L24.1626 18.6693C23.9441 19.4358 23.4817 20.1102 22.8456 20.5904C22.2095 21.0706 21.4343 21.3304 20.6373 21.3306H12.7066C11.9032 21.3307 11.1221 21.0669 10.4833 20.5798C9.84445 20.0927 9.38325 19.4093 9.17059 18.6346L8.15725 14.9386L6.47725 9.27463L6.47592 9.26396C6.26792 8.50796 6.07325 7.79996 5.78259 7.27196C5.50392 6.75863 5.27992 6.66663 5.07859 6.66663H4.33325C4.06804 6.66663 3.81368 6.56127 3.62615 6.37373C3.43861 6.1862 3.33325 5.93184 3.33325 5.66663ZM10.0973 14.4533L11.0986 18.1053C11.2986 18.828 11.9559 19.3306 12.7066 19.3306H20.6373C20.9995 19.3306 21.3519 19.2126 21.6411 18.9944C21.9303 18.7762 22.1405 18.4697 22.2399 18.1213L24.5559 9.99996H8.77992L10.0786 14.3826L10.0973 14.4533ZM14.6666 25.3333C14.6666 26.0405 14.3856 26.7188 13.8855 27.2189C13.3854 27.719 12.7072 28 11.9999 28C11.2927 28 10.6144 27.719 10.1143 27.2189C9.6142 26.7188 9.33325 26.0405 9.33325 25.3333C9.33325 24.626 9.6142 23.9478 10.1143 23.4477C10.6144 22.9476 11.2927 22.6666 11.9999 22.6666C12.7072 22.6666 13.3854 22.9476 13.8855 23.4477C14.3856 23.9478 14.6666 24.626 14.6666 25.3333ZM12.6666 25.3333C12.6666 25.1565 12.5963 24.9869 12.4713 24.8619C12.3463 24.7369 12.1767 24.6666 11.9999 24.6666C11.8231 24.6666 11.6535 24.7369 11.5285 24.8619C11.4035 24.9869 11.3333 25.1565 11.3333 25.3333C11.3333 25.5101 11.4035 25.6797 11.5285 25.8047C11.6535 25.9297 11.8231 26 11.9999 26C12.1767 26 12.3463 25.9297 12.4713 25.8047C12.5963 25.6797 12.6666 25.5101 12.6666 25.3333ZM23.9999 25.3333C23.9999 26.0405 23.719 26.7188 23.2189 27.2189C22.7188 27.719 22.0405 28 21.3333 28C20.626 28 19.9477 27.719 19.4476 27.2189C18.9475 26.7188 18.6666 26.0405 18.6666 25.3333C18.6666 24.626 18.9475 23.9478 19.4476 23.4477C19.9477 22.9476 20.626 22.6666 21.3333 22.6666C22.0405 22.6666 22.7188 22.9476 23.2189 23.4477C23.719 23.9478 23.9999 24.626 23.9999 25.3333ZM21.9999 25.3333C21.9999 25.1565 21.9297 24.9869 21.8047 24.8619C21.6796 24.7369 21.5101 24.6666 21.3333 24.6666C21.1564 24.6666 20.9869 24.7369 20.8618 24.8619C20.7368 24.9869 20.6666 25.1565 20.6666 25.3333C20.6666 25.5101 20.7368 25.6797 20.8618 25.8047C20.9869 25.9297 21.1564 26 21.3333 26C21.5101 26 21.6796 25.9297 21.8047 25.8047C21.9297 25.6797 21.9999 25.5101 21.9999 25.3333Z" fill="black"/>
</svg>
