<svg width="24" height="24" viewBox="0 0 24 24" fill="none" xmlns="http://www.w3.org/2000/svg">
<g clip-path="url(#clip0_2007_500)">
<path fill-rule="evenodd" clip-rule="evenodd" d="M7.823 3.368C7.9557 2.96959 8.21043 2.62305 8.5511 2.37752C8.89176 2.13198 9.30107 1.9999 9.721 2H14.279C14.6989 1.9999 15.1082 2.13198 15.4489 2.37752C15.7896 2.62305 16.0443 2.96959 16.177 3.368L16.72 5H20C20.2652 5 20.5196 5.10536 20.7071 5.29289C20.8946 5.48043 21 5.73478 21 6C21 6.26522 20.8946 6.51957 20.7071 6.70711C20.5196 6.89464 20.2652 7 20 7H19V19C19 19.7956 18.6839 20.5587 18.1213 21.1213C17.5587 21.6839 16.7956 22 16 22H8C7.20435 22 6.44129 21.6839 5.87868 21.1213C5.31607 20.5587 5 19.7956 5 19V7H4C3.73478 7 3.48043 6.89464 3.29289 6.70711C3.10536 6.51957 3 6.26522 3 6C3 5.73478 3.10536 5.48043 3.29289 5.29289C3.48043 5.10536 3.73478 5 4 5H7.28L7.823 3.368ZM9.387 5L9.721 4H14.279L14.613 5H9.387Z" fill="black"/>
</g>
<defs>
<clipPath id="clip0_2007_500">
<rect width="24" height="24" fill="white"/>
</clipPath>
</defs>
</svg>
