<svg width="16" height="17" viewBox="0 0 16 17" fill="none" xmlns="http://www.w3.org/2000/svg">
<path d="M3.99995 10.5C3.43195 10.5 3.13528 9.84267 3.47795 9.418L3.52862 9.362L7.52862 5.362C7.64341 5.24721 7.79615 5.17826 7.95816 5.16807C8.12018 5.15789 8.28035 5.20716 8.40862 5.30667L8.47128 5.362L12.4713 9.362L12.5266 9.42467L12.5626 9.476L12.5986 9.54L12.61 9.564L12.628 9.60867L12.6493 9.68067L12.656 9.716L12.6626 9.756L12.6653 9.794L12.6653 9.87267L12.662 9.91133L12.656 9.95133L12.6493 9.986L12.628 10.058L12.61 10.1027L12.5633 10.1907L12.52 10.2507L12.4713 10.3047L12.4086 10.36L12.3573 10.396L12.2933 10.432L12.2693 10.4433L12.2246 10.4613L12.1526 10.4827L12.1173 10.4893L12.0773 10.496L12.0393 10.4987L3.99995 10.5Z" fill="black"/>
</svg>
