<svg width="32" height="32" viewBox="0 0 32 32" fill="none" xmlns="http://www.w3.org/2000/svg">
<path d="M23.6734 18.6667C24.0671 18.6668 24.457 18.7446 24.8208 18.8954C25.1845 19.0463 25.515 19.2673 25.7933 19.5459C26.0717 19.8245 26.2924 20.1551 26.4429 20.519C26.5935 20.8829 26.6709 21.2729 26.6707 21.6667V22.4333C26.6707 23.6253 26.244 24.7787 25.4707 25.684C23.3774 28.128 20.1947 29.3347 16 29.3347C11.8067 29.3347 8.62402 28.128 6.53602 25.6813C5.76349 24.7765 5.33896 23.6258 5.33868 22.436V21.6653C5.33868 20.87 5.65461 20.1073 6.21697 19.545C6.77933 18.9826 7.54205 18.6667 8.33735 18.6667H23.6734ZM23.6734 20.6667H8.33602C8.20465 20.6665 8.07453 20.6922 7.95313 20.7424C7.83172 20.7926 7.72141 20.8663 7.62852 20.9592C7.53563 21.0521 7.46197 21.1624 7.41178 21.2838C7.36159 21.4052 7.33584 21.5353 7.33602 21.6667V22.436C7.33602 23.1493 7.59202 23.84 8.05602 24.3827C9.72668 26.3413 12.3493 27.3347 15.9987 27.3347C19.6507 27.3347 22.2734 26.3413 23.9494 24.384C24.4142 23.8404 24.6696 23.1486 24.6694 22.4333V21.6653C24.6694 21.4007 24.5643 21.1469 24.3773 20.9596C24.1903 20.7724 23.938 20.667 23.6734 20.6667ZM16 2.67334C16.8755 2.67334 17.7424 2.84578 18.5512 3.18081C19.3601 3.51584 20.095 4.0069 20.7141 4.62596C21.3331 5.24502 21.8242 5.97995 22.1592 6.78878C22.4942 7.59762 22.6667 8.46453 22.6667 9.34001C22.6667 10.2155 22.4942 11.0824 22.1592 11.8912C21.8242 12.7001 21.3331 13.435 20.7141 14.0541C20.095 14.6731 19.3601 15.1642 18.5512 15.4992C17.7424 15.8342 16.8755 16.0067 16 16.0067C14.2319 16.0067 12.5362 15.3043 11.286 14.0541C10.0357 12.8038 9.33335 11.1081 9.33335 9.34001C9.33335 7.5719 10.0357 5.8762 11.286 4.62596C12.5362 3.37572 14.2319 2.67334 16 2.67334ZM16 4.67334C15.3872 4.67334 14.7803 4.79405 14.2142 5.02857C13.648 5.26309 13.1335 5.60683 12.7002 6.04017C12.2668 6.47351 11.9231 6.98796 11.6886 7.55415C11.4541 8.12034 11.3334 8.72717 11.3334 9.34001C11.3334 9.95284 11.4541 10.5597 11.6886 11.1259C11.9231 11.692 12.2668 12.2065 12.7002 12.6398C13.1335 13.0732 13.648 13.4169 14.2142 13.6514C14.7803 13.886 15.3872 14.0067 16 14.0067C17.2377 14.0067 18.4247 13.515 19.2998 12.6398C20.175 11.7647 20.6667 10.5777 20.6667 9.34001C20.6667 8.10233 20.175 6.91534 19.2998 6.04017C18.4247 5.165 17.2377 4.67334 16 4.67334Z" fill="black"/>
</svg>
