<svg width="40" height="40" viewBox="0 0 40 40" fill="none" xmlns="http://www.w3.org/2000/svg">
<path d="M9.58337 3.33334C9.25185 3.33334 8.93391 3.46504 8.69949 3.69946C8.46507 3.93388 8.33337 4.25182 8.33337 4.58334V23.75C8.33337 24.7446 8.72846 25.6984 9.43172 26.4017C10.135 27.1049 11.0888 27.5 12.0834 27.5H15.8334V32.5C15.8334 33.6051 16.2724 34.6649 17.0538 35.4463C17.8352 36.2277 18.895 36.6667 20 36.6667C21.1051 36.6667 22.1649 36.2277 22.9463 35.4463C23.7277 34.6649 24.1667 33.6051 24.1667 32.5V27.5H27.9167C28.4092 27.5 28.8968 27.403 29.3518 27.2146C29.8067 27.0261 30.2201 26.7499 30.5684 26.4017C30.9166 26.0534 31.1928 25.64 31.3813 25.1851C31.5697 24.7301 31.6667 24.2425 31.6667 23.75V4.58334C31.6667 4.25182 31.535 3.93388 31.3006 3.69946C31.0662 3.46504 30.7482 3.33334 30.4167 3.33334H9.58337ZM10.8334 18.3333V5.83334H20.8334V8.75334C20.8334 9.08486 20.9651 9.40281 21.1995 9.63723C21.4339 9.87165 21.7519 10.0033 22.0834 10.0033C22.4149 10.0033 22.7328 9.87165 22.9673 9.63723C23.2017 9.40281 23.3334 9.08486 23.3334 8.75334V5.83334H25V10.4183C25 10.7499 25.1317 11.0678 25.3662 11.3022C25.6006 11.5366 25.9185 11.6683 26.25 11.6683C26.5816 11.6683 26.8995 11.5366 27.1339 11.3022C27.3683 11.0678 27.5 10.7499 27.5 10.4183V5.83334H29.1667V18.3333H10.8334ZM10.8334 23.75V20.8333H29.1667V23.75C29.1667 24.0815 29.035 24.3995 28.8006 24.6339C28.5662 24.8683 28.2482 25 27.9167 25H22.9167C22.5852 25 22.2672 25.1317 22.0328 25.3661C21.7984 25.6005 21.6667 25.9185 21.6667 26.25V32.5C21.6667 32.942 21.4911 33.366 21.1786 33.6785C20.866 33.9911 20.4421 34.1667 20 34.1667C19.558 34.1667 19.1341 33.9911 18.8215 33.6785C18.509 33.366 18.3334 32.942 18.3334 32.5V26.25C18.3334 25.9185 18.2017 25.6005 17.9673 25.3661C17.7328 25.1317 17.4149 25 17.0834 25H12.0834C11.7519 25 11.4339 24.8683 11.1995 24.6339C10.9651 24.3995 10.8334 24.0815 10.8334 23.75Z" fill="black"/>
</svg>
