<svg width="24" height="24" viewBox="0 0 24 24" fill="none" xmlns="http://www.w3.org/2000/svg">
<g clip-path="url(#clip0_1_2434)">
<path fill-rule="evenodd" clip-rule="evenodd" d="M11.9999 13.4139L17.6569 19.0709C17.8455 19.2531 18.0982 19.3539 18.3603 19.3516C18.6225 19.3493 18.8734 19.2441 19.0588 19.0587C19.2442 18.8733 19.3493 18.6225 19.3516 18.3603C19.3539 18.0981 19.2531 17.8455 19.0709 17.6569L13.4139 11.9999L19.0709 6.34291C19.2531 6.1543 19.3539 5.9017 19.3516 5.6395C19.3493 5.37731 19.2442 5.1265 19.0588 4.94109C18.8734 4.75568 18.6225 4.65051 18.3603 4.64823C18.0982 4.64595 17.8455 4.74675 17.6569 4.92891L11.9999 10.5859L6.34295 4.92891C6.15349 4.75125 5.90236 4.65427 5.64268 4.65849C5.38299 4.6627 5.13514 4.76779 4.95155 4.9515C4.76797 5.13521 4.66307 5.38314 4.65903 5.64283C4.655 5.90251 4.75216 6.15358 4.92995 6.34291L10.5859 11.9999L4.92895 17.6569C4.83343 17.7492 4.75725 17.8595 4.70484 17.9815C4.65244 18.1035 4.62485 18.2347 4.62369 18.3675C4.62254 18.5003 4.64784 18.632 4.69812 18.7549C4.7484 18.8778 4.82266 18.9894 4.91655 19.0833C5.01044 19.1772 5.1221 19.2514 5.24499 19.3017C5.36789 19.352 5.49957 19.3773 5.63235 19.3762C5.76513 19.375 5.89635 19.3474 6.01835 19.295C6.14035 19.2426 6.2507 19.1664 6.34295 19.0709L11.9999 13.4139Z" fill="black"/>
</g>
<defs>
<clipPath id="clip0_1_2434">
<rect width="24" height="24" fill="white"/>
</clipPath>
</defs>
</svg>
