<svg width="24" height="25" viewBox="0 0 24 25" fill="none" xmlns="http://www.w3.org/2000/svg">
<path fill-rule="evenodd" clip-rule="evenodd" d="M1.5 12.5C1.5 12.3342 1.57902 12.1753 1.71967 12.0581C1.86032 11.9408 2.05109 11.875 2.25 11.875H19.9395L15.219 7.9425C15.0782 7.82514 14.9991 7.66597 14.9991 7.5C14.9991 7.33403 15.0782 7.17485 15.219 7.0575C15.3598 6.94014 15.5508 6.87421 15.75 6.87421C15.9492 6.87421 16.1402 6.94014 16.281 7.0575L22.281 12.0575C22.3508 12.1156 22.4063 12.1845 22.4441 12.2605C22.4819 12.3364 22.5013 12.4178 22.5013 12.5C22.5013 12.5822 22.4819 12.6636 22.4441 12.7395C22.4063 12.8155 22.3508 12.8844 22.281 12.9425L16.281 17.9425C16.1402 18.0599 15.9492 18.1258 15.75 18.1258C15.5508 18.1258 15.3598 18.0599 15.219 17.9425C15.0782 17.8251 14.9991 17.666 14.9991 17.5C14.9991 17.334 15.0782 17.1749 15.219 17.0575L19.9395 13.125H2.25C2.05109 13.125 1.86032 13.0591 1.71967 12.9419C1.57902 12.8247 1.5 12.6658 1.5 12.5Z" fill="#1E1E1E"/>
</svg>
