<svg width="16" height="17" viewBox="0 0 16 17" fill="none" xmlns="http://www.w3.org/2000/svg">
<path d="M12.0001 6.5C12.5681 6.5 12.8647 7.15733 12.5221 7.582L12.4714 7.638L8.47138 11.638C8.35659 11.7528 8.20386 11.8217 8.04184 11.8319C7.87982 11.8421 7.71965 11.7928 7.59138 11.6933L7.52872 11.638L3.52872 7.638L3.47338 7.57533L3.43738 7.524L3.40138 7.46L3.39005 7.436L3.37205 7.39133L3.35072 7.31933L3.34405 7.284L3.33738 7.244L3.33472 7.206V7.12733L3.33805 7.08867L3.34405 7.04867L3.35072 7.014L3.37205 6.942L3.39005 6.89733L3.43672 6.80933L3.48005 6.74933L3.52872 6.69533L3.59138 6.64L3.64272 6.604L3.70672 6.568L3.73072 6.55667L3.77538 6.53867L3.84738 6.51733L3.88272 6.51067L3.92272 6.504L3.96072 6.50133L12.0001 6.5Z" fill="black"/>
</svg>
