<svg width="21" height="17" viewBox="0 0 21 17" fill="none" xmlns="http://www.w3.org/2000/svg">
<path d="M6.7825 16.2509C14.33 16.2509 18.4587 9.99712 18.4587 4.58337C18.4587 4.40837 18.4587 4.23087 18.4513 4.05587C19.2551 3.47397 19.9488 2.75356 20.5 1.92837C19.7491 2.25943 18.9535 2.47762 18.1388 2.57587C18.9969 2.06291 19.6397 1.25583 19.9475 0.304616C19.1412 0.782271 18.2588 1.11758 17.3387 1.29587C16.7202 0.637146 15.9018 0.200764 15.0101 0.0543133C14.1185 -0.092137 13.2034 0.0595183 12.4067 0.485788C11.6099 0.912058 10.976 1.58915 10.6031 2.41219C10.2301 3.23523 10.139 4.15828 10.3438 5.03837C8.71218 4.95656 7.11602 4.5327 5.6588 3.79429C4.20159 3.05589 2.91586 2.01942 1.885 0.752116C1.36168 1.65597 1.20197 2.72512 1.43831 3.74245C1.67465 4.75978 2.28932 5.64903 3.1575 6.22962C2.50692 6.20751 1.87065 6.03282 1.3 5.71962V5.77587C1.30112 6.72272 1.62913 7.64014 2.22859 8.37307C2.82805 9.10599 3.66218 9.60946 4.59 9.79837C4.23783 9.89538 3.87404 9.94375 3.50875 9.94212C3.25123 9.9429 2.99423 9.91904 2.74125 9.87087C3.00348 10.6859 3.51409 11.3986 4.20156 11.909C4.88903 12.4194 5.71892 12.7019 6.575 12.7171C5.12069 13.8594 3.32425 14.4789 1.475 14.4759C1.14915 14.4772 0.823529 14.4585 0.5 14.4196C2.37689 15.6162 4.55662 16.2516 6.7825 16.2509Z" fill="white"/>
</svg>
